<?xml version="1.0" encoding="UTF-8" standalone="no"?>
<!DOCTYPE svg PUBLIC "-//W3C//DTD SVG 1.1//EN"
 "http://www.w3.org/Graphics/SVG/1.1/DTD/svg11.dtd">
<!-- Generated by graphviz version 9.0.0 (20230911.1827)
 -->
<!-- Title: PowerGymGirls_Tablet Pages: 1 -->
<svg width="368pt" height="116pt"
 viewBox="0.00 0.00 368.38 116.00" xmlns="http://www.w3.org/2000/svg" xmlns:xlink="http://www.w3.org/1999/xlink">
<g id="graph0" class="graph" transform="scale(1 1) rotate(0) translate(4 112)">
<title>PowerGymGirls_Tablet</title>
<polygon fill="white" stroke="none" points="-4,4 -4,-112 364.38,-112 364.38,4 -4,4"/>
<!-- Login_Screen -->
<g id="node1" class="node">
<title>Login_Screen</title>
<polygon fill="none" stroke="black" points="220.38,-108 107.12,-108 107.12,-72 220.38,-72 220.38,-108"/>
<text text-anchor="start" x="119.12" y="-84.95" font-family="Helvetica,sans-Serif" font-size="14.00">Login_Screen</text>
</g>
<!-- Welcome_Screen -->
<g id="node2" class="node">
<title>Welcome_Screen</title>
<polygon fill="none" stroke="black" points="139.5,-36 0,-36 0,0 139.5,0 139.5,-36"/>
<text text-anchor="start" x="12" y="-12.95" font-family="Helvetica,sans-Serif" font-size="14.00">Welcome_Screen</text>
</g>
<!-- Login_Screen&#45;&gt;Welcome_Screen -->
<g id="edge1" class="edge">
<title>Login_Screen&#45;&gt;Welcome_Screen</title>
<path fill="none" stroke="black" d="M140.51,-71.7C128.88,-63.03 114.6,-52.4 101.93,-42.96"/>
<polygon fill="black" stroke="black" points="104.37,-40.42 94.26,-37.25 100.19,-46.03 104.37,-40.42"/>
</g>
<!-- Recover_Password_Screen -->
<g id="node3" class="node">
<title>Recover_Password_Screen</title>
<polygon fill="none" stroke="black" points="360.38,-36 157.12,-36 157.12,0 360.38,0 360.38,-36"/>
<text text-anchor="start" x="169.12" y="-12.95" font-family="Helvetica,sans-Serif" font-size="14.00">Recover_Password_Screen</text>
</g>
<!-- Login_Screen&#45;&gt;Recover_Password_Screen -->
<g id="edge2" class="edge">
<title>Login_Screen&#45;&gt;Recover_Password_Screen</title>
<path fill="none" stroke="black" d="M187.23,-71.7C198.99,-63.03 213.42,-52.4 226.23,-42.96"/>
<polygon fill="black" stroke="black" points="228.01,-45.99 233.99,-37.24 223.86,-40.36 228.01,-45.99"/>
</g>
</g>
</svg>
