<?xml version="1.0" encoding="UTF-8" standalone="no"?>
<!DOCTYPE svg PUBLIC "-//W3C//DTD SVG 1.1//EN"
 "http://www.w3.org/Graphics/SVG/1.1/DTD/svg11.dtd">
<!-- Generated by graphviz version 9.0.0 (20230911.1827)
 -->
<!-- Title: PowerGymGirls Pages: 1 -->
<svg width="714pt" height="332pt"
 viewBox="0.00 0.00 714.00 332.00" xmlns="http://www.w3.org/2000/svg" xmlns:xlink="http://www.w3.org/1999/xlink">
<g id="graph0" class="graph" transform="scale(1 1) rotate(0) translate(4 328)">
<title>PowerGymGirls</title>
<polygon fill="white" stroke="none" points="-4,4 -4,-328 710,-328 710,4 -4,4"/>
<!-- Recover_Password_Screen -->
<g id="node1" class="node">
<title>Recover_Password_Screen</title>
<polygon fill="none" stroke="black" points="203.25,-108 0,-108 0,-72 203.25,-72 203.25,-108"/>
<text text-anchor="start" x="12" y="-84.95" font-family="Helvetica,sans-Serif" font-size="14.00">Recover_Password_Screen</text>
</g>
<!-- Welcome_Screen -->
<g id="node2" class="node">
<title>Welcome_Screen</title>
<polygon fill="none" stroke="black" points="377.38,-36 237.88,-36 237.88,0 377.38,0 377.38,-36"/>
<text text-anchor="start" x="249.88" y="-12.95" font-family="Helvetica,sans-Serif" font-size="14.00">Welcome_Screen</text>
</g>
<!-- Recover_Password_Screen&#45;&gt;Welcome_Screen -->
<g id="edge1" class="edge">
<title>Recover_Password_Screen&#45;&gt;Welcome_Screen</title>
<path fill="none" stroke="black" d="M153.08,-71.52C181.2,-61.96 216.24,-50.05 245.84,-40"/>
<polygon fill="black" stroke="black" points="246.7,-43.4 255.04,-36.87 244.45,-36.77 246.7,-43.4"/>
</g>
<!-- Welcome_Screen&#45;&gt;Welcome_Screen -->
<g id="edge2" class="edge">
<title>Welcome_Screen&#45;&gt;Welcome_Screen</title>
<path fill="none" stroke="black" d="M377.85,-30.25C388.3,-28.34 395.38,-24.26 395.38,-18 395.38,-14.28 392.88,-11.34 388.67,-9.15"/>
<polygon fill="black" stroke="black" points="389.88,-5.87 379.29,-6.21 387.78,-12.55 389.88,-5.87"/>
</g>
<!-- Login_Screen -->
<g id="node3" class="node">
<title>Login_Screen</title>
<polygon fill="none" stroke="black" points="200.25,-180 87,-180 87,-144 200.25,-144 200.25,-180"/>
<text text-anchor="start" x="99" y="-156.95" font-family="Helvetica,sans-Serif" font-size="14.00">Login_Screen</text>
</g>
<!-- Login_Screen&#45;&gt;Recover_Password_Screen -->
<g id="edge3" class="edge">
<title>Login_Screen&#45;&gt;Recover_Password_Screen</title>
<path fill="none" stroke="black" d="M133.24,-143.7C128.56,-135.9 122.93,-126.51 117.72,-117.83"/>
<polygon fill="black" stroke="black" points="120.81,-116.18 112.67,-109.4 114.81,-119.78 120.81,-116.18"/>
</g>
<!-- Login_Screen&#45;&gt;Welcome_Screen -->
<g id="edge4" class="edge">
<title>Login_Screen&#45;&gt;Welcome_Screen</title>
<path fill="none" stroke="black" d="M167.39,-143.65C180.91,-133.56 198,-120.42 212.62,-108 236.98,-87.32 263.4,-62.35 282.18,-44.12"/>
<polygon fill="black" stroke="black" points="284.44,-46.81 289.16,-37.32 279.55,-41.8 284.44,-46.81"/>
</g>
<!-- Gym_Management_Screen -->
<g id="node4" class="node">
<title>Gym_Management_Screen</title>
<polygon fill="none" stroke="black" points="491.62,-324 293.62,-324 293.62,-288 491.62,-288 491.62,-324"/>
<text text-anchor="start" x="305.62" y="-300.95" font-family="Helvetica,sans-Serif" font-size="14.00">Gym_Management_Screen</text>
</g>
<!-- Gym_Management_Screen&#45;&gt;Welcome_Screen -->
<g id="edge5" class="edge">
<title>Gym_Management_Screen&#45;&gt;Welcome_Screen</title>
<path fill="none" stroke="black" d="M337.84,-287.59C321.35,-279.5 305.12,-268.01 295.62,-252 257.15,-187.13 281,-93.34 296.86,-47.04"/>
<polygon fill="black" stroke="black" points="300.11,-48.35 300.17,-37.76 293.51,-46 300.11,-48.35"/>
</g>
<!-- Photos_Gallery_Screen -->
<g id="node5" class="node">
<title>Photos_Gallery_Screen</title>
<polygon fill="none" stroke="black" points="480.38,-252 304.88,-252 304.88,-216 480.38,-216 480.38,-252"/>
<text text-anchor="start" x="316.88" y="-228.95" font-family="Helvetica,sans-Serif" font-size="14.00">Photos_Gallery_Screen</text>
</g>
<!-- Gym_Management_Screen&#45;&gt;Photos_Gallery_Screen -->
<g id="edge6" class="edge">
<title>Gym_Management_Screen&#45;&gt;Photos_Gallery_Screen</title>
<path fill="none" stroke="black" d="M392.62,-287.7C392.62,-280.41 392.62,-271.73 392.62,-263.54"/>
<polygon fill="black" stroke="black" points="396.13,-263.62 392.63,-253.62 389.13,-263.62 396.13,-263.62"/>
</g>
<!-- Photos_Gallery_Screen&#45;&gt;Welcome_Screen -->
<g id="edge7" class="edge">
<title>Photos_Gallery_Screen&#45;&gt;Welcome_Screen</title>
<path fill="none" stroke="black" d="M361.73,-215.7C348.72,-206.77 334.74,-194.65 326.62,-180 303.55,-138.34 302.68,-81.41 304.74,-47.6"/>
<polygon fill="black" stroke="black" points="308.22,-48 305.48,-37.77 301.24,-47.48 308.22,-48"/>
</g>
<!-- Image_Log_Screen -->
<g id="node6" class="node">
<title>Image_Log_Screen</title>
<polygon fill="none" stroke="black" points="487.38,-180 335.88,-180 335.88,-144 487.38,-144 487.38,-180"/>
<text text-anchor="start" x="347.88" y="-156.95" font-family="Helvetica,sans-Serif" font-size="14.00">Image_Log_Screen</text>
</g>
<!-- Photos_Gallery_Screen&#45;&gt;Image_Log_Screen -->
<g id="edge8" class="edge">
<title>Photos_Gallery_Screen&#45;&gt;Image_Log_Screen</title>
<path fill="none" stroke="black" d="M397.32,-215.7C399.35,-208.24 401.77,-199.32 404.03,-190.97"/>
<polygon fill="black" stroke="black" points="407.34,-192.13 406.59,-181.57 400.59,-190.3 407.34,-192.13"/>
</g>
<!-- Image_Log_Screen&#45;&gt;Welcome_Screen -->
<g id="edge9" class="edge">
<title>Image_Log_Screen&#45;&gt;Welcome_Screen</title>
<path fill="none" stroke="black" d="M398.87,-143.59C380.84,-118.97 347.76,-73.8 326.77,-45.14"/>
<polygon fill="black" stroke="black" points="329.78,-43.33 321.05,-37.33 324.14,-47.47 329.78,-43.33"/>
</g>
<!-- Maintenance_List_Screen -->
<g id="node7" class="node">
<title>Maintenance_List_Screen</title>
<polygon fill="none" stroke="black" points="583.75,-108 395.5,-108 395.5,-72 583.75,-72 583.75,-108"/>
<text text-anchor="start" x="407.5" y="-84.95" font-family="Helvetica,sans-Serif" font-size="14.00">Maintenance_List_Screen</text>
</g>
<!-- Image_Log_Screen&#45;&gt;Maintenance_List_Screen -->
<g id="edge10" class="edge">
<title>Image_Log_Screen&#45;&gt;Maintenance_List_Screen</title>
<path fill="none" stroke="black" d="M430.91,-143.7C440.28,-135.28 451.72,-125.02 462,-115.79"/>
<polygon fill="black" stroke="black" points="464.06,-118.64 469.17,-109.36 459.39,-113.43 464.06,-118.64"/>
</g>
<!-- Maintenance_List_Screen&#45;&gt;Welcome_Screen -->
<g id="edge11" class="edge">
<title>Maintenance_List_Screen&#45;&gt;Welcome_Screen</title>
<path fill="none" stroke="black" d="M444.17,-71.52C419.65,-62.08 389.18,-50.37 363.25,-40.39"/>
<polygon fill="black" stroke="black" points="364.82,-37.25 354.23,-36.93 362.31,-43.78 364.82,-37.25"/>
</g>
<!-- Maintenance_List_Screen&#45;&gt;Gym_Management_Screen -->
<g id="edge12" class="edge">
<title>Maintenance_List_Screen&#45;&gt;Gym_Management_Screen</title>
<path fill="none" stroke="black" d="M495.32,-108.25C504.57,-139.76 519.05,-207.46 489.62,-252 481.2,-264.76 468.62,-274.7 455.3,-282.36"/>
<polygon fill="black" stroke="black" points="454.05,-279.06 446.85,-286.83 457.32,-285.25 454.05,-279.06"/>
</g>
<!-- Gym_Rooms_Screen -->
<g id="node8" class="node">
<title>Gym_Rooms_Screen</title>
<polygon fill="none" stroke="black" points="706,-180 543.25,-180 543.25,-144 706,-144 706,-180"/>
<text text-anchor="start" x="555.25" y="-156.95" font-family="Helvetica,sans-Serif" font-size="14.00">Gym_Rooms_Screen</text>
</g>
<!-- Gym_Rooms_Screen&#45;&gt;Welcome_Screen -->
<g id="edge13" class="edge">
<title>Gym_Rooms_Screen&#45;&gt;Welcome_Screen</title>
<path fill="none" stroke="black" d="M623.42,-143.74C621.02,-123.4 613.89,-90.08 592.62,-72 562.49,-46.38 461.92,-32.24 388.77,-25.14"/>
<polygon fill="black" stroke="black" points="389.53,-21.7 379.24,-24.24 388.87,-28.67 389.53,-21.7"/>
</g>
<!-- Gym_Rooms_Screen&#45;&gt;Maintenance_List_Screen -->
<g id="edge14" class="edge">
<title>Gym_Rooms_Screen&#45;&gt;Maintenance_List_Screen</title>
<path fill="none" stroke="black" d="M590.91,-143.52C573.38,-134.43 551.76,-123.22 533,-113.49"/>
<polygon fill="black" stroke="black" points="534.75,-110.45 524.26,-108.96 531.52,-116.67 534.75,-110.45"/>
</g>
</g>
</svg>
